<?xml version="1.0" encoding="UTF-8"?>
<svg xmlns="http://www.w3.org/2000/svg" xmlns:xlink="http://www.w3.org/1999/xlink" width="32px" height="32px" viewBox="0 0 32 32" version="1.1">
<g id="surface1">
<path style=" stroke:none;fill-rule:nonzero;fill:rgb(0%,0%,0%);fill-opacity:1;" d="M 16.21875 0 C 7.382812 0 0.21875 7.164062 0.21875 16 C 0.21875 24.835938 7.382812 32 16.21875 32 C 25.054688 32 32.21875 24.835938 32.21875 16 C 32.207031 7.167969 25.050781 0.0078125 16.21875 0 Z M 21.550781 17.332031 L 10.882812 17.332031 C 10.148438 17.332031 9.550781 16.738281 9.550781 16 C 9.550781 15.261719 10.148438 14.667969 10.882812 14.667969 L 21.550781 14.667969 C 22.289062 14.667969 22.882812 15.261719 22.882812 16 C 22.882812 16.738281 22.289062 17.332031 21.550781 17.332031 Z M 21.550781 17.332031 "/>
</g>
</svg>
